HIERARCHY
ROOT Hips
{
	OFFSET 0.000000 0.000000 0.000000 
	CHANNELS 6 Xposition Yposition Zposition Zrotation Yrotation Xrotation
	JOINT LeftUpLeg
	{
		OFFSET 1.363060 -1.794630 0.839290 
		CHANNELS 3 Zrotation Yrotation Xrotation
		JOINT LeftLeg
		{
			OFFSET 2.448110 -6.726130 0.000000 
			CHANNELS 3 Zrotation Yrotation Xrotation
			JOINT LeftFoot
			{
				OFFSET 2.562200 -7.039590 0.000000 
				CHANNELS 3 Zrotation Yrotation Xrotation
				JOINT LeftToeBase
				{
					OFFSET 0.157640 -0.433110 2.322550 
					CHANNELS 3 Zrotation Yrotation Xrotation
					End Site
					{
						OFFSET 0.000000 0.000000 0.000000 
					}
				}
			}
		}
	}
	JOINT RightUpLeg
	{
		OFFSET -1.305520 -1.794630 0.839290 
		CHANNELS 3 Zrotation Yrotation Xrotation
		JOINT RightLeg
		{
			OFFSET -2.542530 -6.985550 0.000000 
			CHANNELS 3 Zrotation Yrotation Xrotation
			JOINT RightFoot
			{
				OFFSET -2.568260 -7.056230 0.000000 
				CHANNELS 3 Zrotation Yrotation Xrotation
				JOINT RightToeBase
				{
					OFFSET -0.164730 -0.452590 2.363150 
					CHANNELS 3 Zrotation Yrotation Xrotation
					End Site
					{
						OFFSET 0.000000 0.000000 0.000000 
					}
				}
			}
		}
	}
	JOINT Spine
	{
		OFFSET 0.028270 2.035590 -0.193380 
		CHANNELS 3 Zrotation Yrotation Xrotation
		JOINT Spine1
		{
			OFFSET 0.056720 2.048850 -0.042750 
			CHANNELS 3 Zrotation Yrotation Xrotation
			JOINT Neck1
			{
				OFFSET -0.054170 1.746240 0.172020 
				CHANNELS 3 Zrotation Yrotation Xrotation
				JOINT Head
				{
					OFFSET 0.104070 1.761360 -0.123970 
					CHANNELS 3 Zrotation Yrotation Xrotation
					End Site
					{
						OFFSET 0.000000 0.000000 0.000000 
					}
				}
			}
			JOINT LeftArm
			{
				OFFSET 3.362410 1.200890 -0.311210 
				CHANNELS 3 Zrotation Yrotation Xrotation
				JOINT LeftForeArm
				{
					OFFSET 4.983000 -0.000000 -0.000000 
					CHANNELS 3 Zrotation Yrotation Xrotation
					JOINT LeftHand
					{
						OFFSET 3.483560 -0.000000 -0.000000 
						CHANNELS 3 Zrotation Yrotation Xrotation
						JOINT LeftHandIndex1
						{
							OFFSET 0.715260 -0.000000 -0.000000 
							CHANNELS 3 Zrotation Yrotation Xrotation
							End Site
							{
								OFFSET 0.000000 0.000000 0.000000 
							}
						}
					}
				}
			}
			JOINT RightArm
			{
				OFFSET -3.136600 1.374050 -0.404650 
				CHANNELS 3 Zrotation Yrotation Xrotation
				JOINT RightForeArm
				{
					OFFSET -5.241900 -0.000000 -0.000000 
					CHANNELS 3 Zrotation Yrotation Xrotation
					JOINT RightHand
					{
						OFFSET -3.444170 -0.000000 -0.000000 
						CHANNELS 3 Zrotation Yrotation Xrotation
						JOINT RightHandIndex1
						{
							OFFSET -0.622530 -0.000000 -0.000000 
							CHANNELS 3 Zrotation Yrotation Xrotation
							End Site
							{
								OFFSET 0.000000 0.000000 0.000000 
							}
						}
					}
				}
			}
		}
	}
}
MOTION
Frames: 18
Frame Time: 0.041667
6.957722 18.022365 -11.895213 -2.038263 -5.021898 2.629250 -2.120014 3.534991 -7.677491 3.070689 12.963051 35.820272 1.090211 -3.065237 -0.669628 0.059500 1.573300 4.327900 24.265923 -0.360640 7.708227 1.368916 -1.830702 1.512127 2.188254 -24.058722 -28.355513 -0.454800 -4.326500 11.997000 3.647568 -1.293073 -4.931922 -1.725633 -0.257417 1.841177 7.511887 -17.534477 -1.277315 2.695600 -8.772200 -2.087900 -80.981990 1.622902 36.840261 15.250449 -21.459497 -2.992582 0.671981 -0.278644 -8.445147 -7.125000 0.000000 0.000000 75.668638 -7.519184 5.636203 -21.597465 26.339194 -6.789165 1.859272 1.421218 9.473624 7.125000 0.000000 0.000000 
6.964298 18.016188 -11.926997 -2.337160 -4.632115 2.746311 -1.865019 3.462615 -7.371190 3.173332 13.054866 36.181187 1.262344 -3.979300 -0.792658 0.073300 1.746100 4.804400 24.587038 -0.538794 7.350618 1.367494 -1.866167 1.592828 2.154184 -23.907921 -28.355014 -0.532500 -4.675900 12.986600 3.887916 -1.782118 -5.049137 -1.326940 -0.497454 1.708945 7.423501 -17.280440 -1.429503 2.773100 -8.638700 -2.158200 -81.486834 1.902933 36.286247 15.317320 -21.535223 -3.010141 0.667839 -0.259970 -8.395291 -7.125000 0.000000 0.000000 75.743173 -8.213434 11.385698 -21.736552 26.628395 -6.972460 1.135300 2.223302 -4.205637 7.125000 0.000000 0.000000 
6.970675 18.014394 -11.961970 -2.306498 -4.208085 2.796409 -2.011057 3.223928 -7.030502 3.266811 13.179421 36.575953 1.435901 -4.928073 -1.055112 0.059100 1.568100 4.313400 24.498336 -0.682337 7.133174 1.369967 -1.837586 1.524971 2.172823 -24.029363 -28.450831 -0.565800 -4.817600 13.389000 4.129726 -2.319833 -5.166259 -0.669755 -0.760481 1.586635 7.404963 -17.021580 -1.473817 2.859000 -8.500400 -2.143400 -82.164303 2.066207 35.548760 15.317102 -21.533827 -3.008410 0.673187 -0.231537 -8.616239 -7.125000 0.000000 0.000000 75.197363 -8.384105 11.681340 -21.261683 26.118770 -6.732977 1.140912 2.232459 -4.052185 7.125000 0.000000 0.000000 
6.980240 18.014394 -12.002821 -2.541360 -3.890834 2.779649 -1.838935 3.076963 -6.568645 3.335578 13.238170 36.795794 1.594901 -5.831126 -1.133124 0.054400 1.505700 4.141400 24.760961 -0.651682 7.041322 1.378907 -1.794604 1.405714 2.186199 -24.178195 -28.675070 -0.621100 -5.043200 14.032000 4.433095 -2.784249 -5.238324 -0.028423 -0.971825 1.542700 7.977920 -16.448738 -1.526050 3.275000 -8.217500 -2.110800 -82.982045 2.088491 34.442177 15.229907 -21.437265 -2.983882 0.682047 -0.220675 -8.432114 -7.125000 0.000000 0.000000 74.510661 -8.628065 11.692680 -20.898473 25.728475 -6.558176 1.212636 2.203934 -3.114283 7.125000 0.000000 0.000000 
6.990602 18.012102 -12.041480 -2.702260 -3.624497 2.803499 -1.761669 2.963038 -6.151471 3.397216 13.293472 36.992647 1.743669 -6.719030 -1.186012 0.063400 1.624200 4.468100 24.883705 -0.769509 6.809379 1.379095 -1.795250 1.402823 2.180332 -24.162084 -28.698435 -0.669000 -5.230800 14.567900 4.666737 -3.189845 -5.326845 0.484232 -1.163502 1.457560 8.164228 -16.116960 -1.584536 3.484100 -8.047800 -2.112400 -83.609243 2.182543 33.641205 15.225242 -21.434651 -2.983782 0.685741 -0.206011 -8.381809 -7.125000 0.000000 0.000000 74.059415 -8.885455 12.334527 -20.545076 25.362863 -6.405821 1.154777 2.263877 -4.158683 7.125000 0.000000 0.000000 
7.002858 18.009412 -12.081633 -2.851461 -3.417394 2.824715 -1.706303 2.861864 -5.717569 3.429250 13.316457 37.069826 1.865450 -7.474676 -1.206782 0.077000 1.790200 4.926200 24.962011 -0.934296 6.539286 1.375898 -1.812043 1.440384 2.169081 -24.086630 -28.632981 -0.710100 -5.385800 15.012200 4.850441 -3.501584 -5.393406 0.900717 -1.310355 1.398672 8.308909 -15.867542 -1.619380 3.650300 -7.919000 -2.104700 -84.112456 2.209187 32.988866 15.238679 -21.453022 -2.989605 0.688392 -0.194095 -8.317828 -7.125000 0.000000 0.000000 73.707224 -9.072267 12.381986 -20.119457 24.903946 -6.209229 1.168031 2.271368 -4.153400 7.125000 0.000000 0.000000 
7.016807 18.006423 -12.123481 -2.997933 -3.244146 2.854645 -1.657566 2.756260 -5.281712 3.426919 13.302048 37.011385 1.955514 -8.048107 -1.199851 0.100000 2.038900 5.613200 25.013952 -1.135079 6.218703 1.370145 -1.848468 1.527135 2.152746 -23.959978 -28.497322 -0.744800 -5.512600 15.376700 4.971268 -3.708550 -5.433285 1.188475 -1.408442 1.372111 8.397220 -15.725003 -1.638777 3.756500 -7.844100 -2.090900 -84.437382 2.160657 32.558964 15.282365 -21.506802 -3.005132 0.689106 -0.186196 -8.256653 -7.125000 0.000000 0.000000 73.547790 -9.230673 12.173305 -19.683277 24.429231 -6.011667 1.184161 2.275410 -4.119838 7.125000 0.000000 0.000000 
7.031952 18.003036 -12.166922 -3.135074 -3.081499 2.898133 -1.619668 2.630014 -4.859420 3.393162 13.255632 36.834147 2.013854 -8.415821 -1.190740 0.131500 2.337700 6.440000 25.044097 -1.338122 5.858486 1.363586 -1.899839 1.651068 2.138349 -23.829609 -28.329771 -0.769200 -5.600400 15.629300 5.031084 -3.823229 -5.447523 1.357979 -1.464115 1.379418 8.428063 -15.695864 -1.659219 3.800800 -7.826300 -2.076100 -84.581410 2.037932 32.374560 15.353691 -21.592141 -3.029179 0.688151 -0.181181 -8.237897 -7.125000 0.000000 0.000000 73.581614 -9.372190 11.721763 -19.247387 23.950193 -5.818075 1.202303 2.276198 -4.046240 7.125000 0.000000 0.000000 
7.047893 17.999548 -12.211659 -3.257088 -2.901016 2.947334 -1.595538 2.466101 -4.451839 3.334426 13.185108 36.566424 2.046327 -8.595850 -1.207289 0.165800 2.623200 7.231400 25.058823 -1.519777 5.492944 1.358243 -1.954310 1.782768 2.130452 -23.735485 -28.178158 -0.785300 -5.657300 15.793100 5.048154 -3.882239 -5.442124 1.453527 -1.494151 1.417586 8.466656 -15.725733 -1.690064 3.825900 -7.839900 -2.064000 -84.595436 1.860527 32.383802 15.446514 -21.702445 -3.060474 0.686716 -0.176909 -8.277589 -7.125000 0.000000 0.000000 73.754357 -9.516978 11.110625 -18.830403 23.488518 -5.637711 1.219982 2.275940 -3.938170 7.125000 0.000000 0.000000 
7.064632 17.996061 -12.257293 -3.371799 -2.689142 2.992081 -1.575111 2.259642 -4.044812 3.252727 13.091573 36.213461 2.055424 -8.598407 -1.255660 0.199400 2.875400 7.932100 25.073635 -1.670559 5.154999 1.354922 -2.002619 1.897463 2.130172 -23.692899 -28.069576 -0.797300 -5.699200 15.914200 5.035688 -3.911368 -5.421536 1.496496 -1.510939 1.480542 8.518364 -15.794030 -1.767778 3.847300 -7.874800 -2.075700 -84.517139 1.642939 32.534740 15.547279 -21.821365 -3.094545 0.685733 -0.172468 -8.357355 -7.125000 0.000000 0.000000 74.030368 -9.687740 10.416782 -18.451833 23.068476 -5.480817 1.236408 2.276939 -3.818871 7.125000 0.000000 0.000000 
7.082268 17.992574 -12.303624 -3.484852 -2.453607 3.028121 -1.554125 2.030069 -3.635214 3.160535 12.985512 35.817559 2.055065 -8.535035 -1.299200 0.233800 3.111800 8.590300 25.097159 -1.784838 4.853513 1.353858 -2.040903 1.986079 2.139811 -23.710311 -28.000202 -0.806400 -5.731000 16.005800 5.024984 -3.957537 -5.398507 1.544230 -1.536115 1.547362 8.608314 -15.835662 -1.883681 3.894100 -7.897600 -2.105800 -84.441966 1.420890 32.687055 15.649904 -21.942893 -3.129898 0.685316 -0.167626 -8.434803 -7.125000 0.000000 0.000000 74.298486 -9.884793 9.796861 -18.107089 22.687756 -5.346368 1.252102 2.281464 -3.727318 7.125000 0.000000 0.000000 
7.101199 17.989186 -12.350652 -3.592898 -2.206639 3.055581 -1.539566 1.788372 -3.218767 3.056956 12.864632 35.372205 2.048119 -8.433796 -1.311099 0.273200 3.362100 9.288500 25.116066 -1.892247 4.576818 1.353631 -2.071441 2.054571 2.154984 -23.758272 -27.943877 -0.814500 -5.759100 16.087000 5.013625 -4.011538 -5.377663 1.595982 -1.565571 1.601455 8.710832 -15.858508 -2.025080 3.952100 -7.911900 -2.151200 -84.370557 1.215507 32.849560 15.763772 -22.078281 -3.169947 0.685536 -0.161946 -8.505248 -7.125000 0.000000 0.000000 74.561133 -10.098974 9.219926 -17.774543 22.320944 -5.222628 1.268830 2.287638 -3.645869 7.125000 0.000000 0.000000 
7.121326 17.985699 -12.398079 -3.698826 -1.966926 3.080383 -1.529132 1.552363 -2.797473 2.940204 12.724712 34.865720 2.033196 -8.291576 -1.273071 0.319100 3.631200 10.041400 25.127800 -2.003454 4.313135 1.353220 -2.094597 2.103534 2.171911 -23.811243 -27.881650 -0.825500 -5.796800 16.195900 4.997925 -4.058277 -5.359023 1.644679 -1.592038 1.638282 8.790548 -15.877826 -2.151835 3.998100 -7.924000 -2.194900 -84.293810 1.024184 33.038305 15.890936 -22.229601 -3.215172 0.686217 -0.155228 -8.559268 -7.125000 0.000000 0.000000 74.826755 -10.309246 8.641039 -17.433624 21.942788 -5.098539 1.288666 2.292720 -3.547161 7.125000 0.000000 0.000000 
7.142449 17.982211 -12.447001 -3.811121 -1.735475 3.114277 -1.506831 1.327856 -2.393321 2.811034 12.565327 34.299376 2.005589 -8.074605 -1.189220 0.358900 3.848800 10.651500 25.147738 -2.085203 4.056762 1.353552 -2.106771 2.123649 2.191832 -23.884606 -27.837173 -0.844000 -5.859900 16.378400 4.977895 -4.092885 -5.341154 1.684545 -1.613083 1.663819 8.835920 -15.904510 -2.235737 4.021000 -7.938800 -2.220800 -84.201790 0.831431 33.266600 16.035811 -22.401491 -3.267150 0.686838 -0.147907 -8.602741 -7.125000 0.000000 0.000000 75.099220 -10.491383 8.032145 -17.075059 21.542372 -4.970240 1.312724 2.295902 -3.410935 7.125000 0.000000 0.000000 
7.164070 17.979023 -12.497815 -3.926910 -1.499327 3.164114 -1.467881 1.106320 -2.021969 2.669900 12.385041 33.673002 1.963835 -7.787867 -1.017147 0.400100 4.061200 11.248900 25.177920 -2.110924 3.805462 1.355788 -2.106748 2.111912 2.215897 -23.995813 -27.844440 -0.869500 -5.945600 16.626600 4.953825 -4.119386 -5.325514 1.716854 -1.630655 1.680308 8.835188 -15.948322 -2.264675 4.016900 -7.960600 -2.225100 -84.093028 0.637996 33.532660 16.202101 -22.598920 -3.327540 0.687777 -0.139872 -8.642925 -7.125000 0.000000 0.000000 75.380963 -10.643698 7.383632 -16.703723 21.123976 -4.839223 1.340204 2.296708 -3.225184 7.125000 0.000000 0.000000 
7.185990 17.975934 -12.550523 -4.041964 -1.260306 3.229769 -1.415092 0.890158 -1.681851 2.514914 12.179209 32.973999 1.904730 -7.426623 -0.694404 0.464900 4.373400 12.129700 25.213647 -2.077800 3.558531 1.360177 -2.095403 2.070688 2.247236 -24.156634 -27.897306 -0.894200 -6.027100 16.863100 4.924774 -4.135950 -5.312162 1.740661 -1.643720 1.690268 8.795018 -16.007197 -2.241537 3.991800 -7.988500 -2.210400 -83.968035 0.444669 33.833293 16.381012 -22.811222 -3.393849 0.689742 -0.130650 -8.677127 -7.125000 0.000000 0.000000 75.672380 -10.782337 6.718612 -16.336536 20.706434 -4.710471 1.368426 2.294957 -3.000697 7.125000 0.000000 0.000000 
7.208508 17.972646 -12.604526 -4.158381 -1.021073 3.306770 -1.348880 0.684504 -1.362407 2.344051 11.943028 32.187113 1.827358 -6.980494 -0.213806 0.557700 4.783500 13.292100 25.252028 -2.015643 3.310343 1.365547 -2.076427 2.008858 2.286043 -24.354689 -27.963330 -0.914100 -6.091900 17.051200 4.893651 -4.149652 -5.302380 1.757279 -1.655174 1.693441 8.750430 -16.064185 -2.181724 3.967500 -8.014800 -2.183400 -83.838956 0.263878 34.149062 16.569001 -23.034163 -3.464834 0.692676 -0.120135 -8.709406 -7.125000 0.000000 0.000000 75.963682 -10.931969 6.093451 -15.996870 20.317709 -4.592989 1.394147 2.292165 -2.762588 7.125000 0.000000 0.000000 
7.232121 17.968960 -12.659625 -4.283770 -0.784724 3.392404 -1.261240 0.495006 -1.053162 2.157598 11.671010 31.297745 1.742662 -6.492135 0.369408 0.672000 5.241900 14.599800 25.297692 -1.949286 3.048719 1.371103 -2.056804 1.943953 2.331005 -24.572936 -28.015786 -0.927400 -6.135000 17.176700 4.864025 -4.166619 -5.295139 1.768655 -1.668241 1.691941 8.717014 -16.109218 -2.105528 3.954500 -8.035300 -2.153000 -83.714490 0.098218 34.448933 16.763258 -23.264773 -3.539676 0.696584 -0.108624 -8.736041 -7.125000 0.000000 0.000000 76.250799 -11.105665 5.547256 -15.703648 19.981117 -4.493875 1.415291 2.290051 -2.531861 7.125000 0.000000 0.000000 
